<?xml version="1.0" encoding="UTF-8"?>
<svg version="1.1" xmlns="http://www.w3.org/2000/svg" width="290" height="278">
<path d="M0 0 C1.49984885 1.28881484 2.9809965 2.59989474 4.4375 3.9375 C5.08074219 4.52402344 5.72398437 5.11054687 6.38671875 5.71484375 C15.02686553 13.98014685 15.02686553 13.98014685 17.4375 18.9375 C17.29711914 21.35986328 17.29711914 21.35986328 16.4375 23.9375 C14.37475586 25.64746094 14.37475586 25.64746094 11.65234375 27.171875 C10.65332031 27.74212402 9.65429688 28.31237305 8.625 28.89990234 C7.5525 29.48980957 6.48 30.0797168 5.375 30.6875 C3.75271484 31.60523193 3.75271484 31.60523193 2.09765625 32.54150391 C-1.11436682 34.3549427 -4.33770252 36.14690616 -7.5625 37.9375 C-9.2810757 38.90685742 -10.99864103 39.87800999 -12.71484375 40.8515625 C-16.32213939 42.89591795 -19.93847065 44.92296604 -23.5625 46.9375 C-24.00980469 46.55078125 -24.45710938 46.1640625 -24.91796875 45.765625 C-26.17388189 44.68377232 -27.43317816 43.60583827 -28.6953125 42.53125 C-30.18225473 41.26206082 -31.65597023 39.9773798 -33.125 38.6875 C-39.36309916 34.2088647 -46.1463057 34.33169757 -53.5625 34.9375 C-60.15929499 36.16532986 -64.42101009 39.78535473 -68.5625 44.9375 C-72.35893633 51.26489389 -73.65568976 57.7958024 -72.1015625 65.10546875 C-70.22598904 71.51551689 -67.21953265 77.49947823 -61.53515625 81.2890625 C-54.98003408 84.68258943 -48.29322339 86.28079183 -41.03125 84.21875 C-34.4388816 81.75654011 -29.53673861 78.89885791 -25.5625 72.9375 C-21.2042689 73.53343272 -18.09177341 75.13026486 -14.30078125 77.32421875 C-13.71008347 77.66371048 -13.11938568 78.00320221 -12.51078796 78.35298157 C-10.62833259 79.43712491 -8.75171409 80.53095468 -6.875 81.625 C-5.63382369 82.34111935 -4.39229006 83.05661979 -3.15039062 83.77148438 C3.75531641 87.75492553 10.61859284 91.80701543 17.4375 95.9375 C17.06123519 101.70397698 14.81673519 104.59988536 11.125 108.75 C10.31639526 109.66857788 10.31639526 109.66857788 9.49145508 110.60571289 C-2.64016248 124.01100035 -19.53942971 133.60776145 -37.76757812 135.22119141 C-41.03815566 135.33729197 -44.29020009 135.34747708 -47.5625 135.3125 C-48.64789063 135.32410156 -49.73328125 135.33570313 -50.8515625 135.34765625 C-61.49950808 135.30953711 -71.1830846 133.21231797 -80.625 128.25 C-81.29909912 127.90259766 -81.97319824 127.55519531 -82.66772461 127.19726562 C-92.05423683 122.23641403 -100.08520816 116.41143277 -106.5625 107.9375 C-107.42101562 106.84888672 -107.42101562 106.84888672 -108.296875 105.73828125 C-111.96401807 100.82982648 -114.85467449 95.69477078 -117.5 90.1875 C-117.80679688 89.56157959 -118.11359375 88.93565918 -118.4296875 88.29077148 C-120.40926967 83.9992061 -120.5625 81.93524518 -120.5625 76.9375 C-114.2925 76.9375 -108.0225 76.9375 -101.5625 76.9375 C-100.4075 79.391875 -99.2525 81.84625 -98.0625 84.375 C-91.32455815 98.08589603 -81.14926735 107.79762765 -66.5625 112.9375 C-52.308288 117.65501381 -37.30341849 117.49550164 -23.57177734 110.99511719 C-16.07676138 107.15846877 -16.07676138 107.15846877 -9.5625 101.9375 C-11.11004882 100.87374799 -12.67628184 99.83713986 -14.25 98.8125 C-15.12011719 98.23242188 -15.99023438 97.65234375 -16.88671875 97.0546875 C-19.5255451 95.6317654 -19.5255451 95.6317654 -22.2578125 96.66796875 C-24.57813267 97.90715535 -24.57813267 97.90715535 -26.75 99.375 C-36.99821299 105.06845166 -49.0110099 105.47806138 -60.3125 102.875 C-72.94284824 98.84004477 -81.94515782 90.34315754 -88 78.75 C-93.08332084 68.40329518 -93.27386792 54.83831779 -89.5625 43.9375 C-84.97815573 32.09653038 -76.30698315 23.35199667 -64.8125 18.0625 C-54.89187332 14.62843692 -41.47884343 14.34709979 -31.5625 17.9375 C-28.99288742 19.24421771 -26.45791618 20.5774471 -23.95703125 22.01171875 C-21.01590504 23.14882627 -19.53896109 22.87071387 -16.5625 21.9375 C-14.88220006 20.96058143 -13.21321396 19.96361949 -11.5625 18.9375 C-10.9025 18.9375 -10.2425 18.9375 -9.5625 18.9375 C-9.5625 17.9475 -9.5625 16.9575 -9.5625 15.9375 C-10.06265625 15.69 -10.5628125 15.4425 -11.078125 15.1875 C-13.11815199 14.16107133 -15.14580304 13.11597447 -17.171875 12.0625 C-18.55196984 11.35394556 -19.93218156 10.64561875 -21.3125 9.9375 C-21.99054688 9.58171875 -22.66859375 9.2259375 -23.3671875 8.859375 C-31.00753152 4.96657615 -37.88810607 3.5776812 -46.4375 3.6875 C-47.23269043 3.69716797 -48.02788086 3.70683594 -48.84716797 3.71679688 C-58.29580474 3.91006005 -65.3769691 5.62047317 -73.875 9.75 C-74.55771973 10.08128906 -75.24043945 10.41257812 -75.94384766 10.75390625 C-80.22815793 12.94936458 -83.20241593 15.43052701 -86.5625 18.9375 C-87.2225 18.9375 -87.8825 18.9375 -88.5625 18.9375 C-88.97242188 19.81921875 -88.97242188 19.81921875 -89.390625 20.71875 C-90.5280716 22.87231556 -91.77692675 24.5551844 -93.3125 26.4375 C-97.23104849 31.53354335 -99.80036113 37.15016141 -102.5625 42.9375 C-108.5025 42.9375 -114.4425 42.9375 -120.5625 42.9375 C-120.5625 28.66407832 -111.21527207 15.6719413 -101.50390625 5.7578125 C-73.76231205 -21.38570421 -30.6422666 -23.87408063 0 0 Z " fill="#0C9FCE" transform="translate(198.5625,54.0625)"/>
<path d="M0 0 C2.81182096 2.23291665 3.90577243 4.28546323 4.4609375 7.8359375 C4.55645621 13.2805041 3.85777479 16.43628427 0.125 20.6875 C-2.86312362 23.03531141 -6.09411188 23.10575081 -9.84375 23.0078125 C-13.22929158 22.47393864 -15.31680448 20.88023902 -17.875 18.6875 C-20.42427287 14.5000346 -20.69551202 10.4696761 -19.875 5.6875 C-18.20746837 2.54509975 -15.84354961 0.45566004 -13.0625 -1.75 C-8.44784997 -2.93662429 -4.21425095 -1.92389717 0 0 Z " fill="#099FD0" transform="translate(92.875,103.3125)"/>
<path d="M0 0 C0 4.62 0 9.24 0 14 C0.99 14 1.98 14 3 14 C3 15.65 3 17.3 3 19 C2.34 19.33 1.68 19.66 1 20 C0.67 20.99 0.34 21.98 0 23 C-1.98 23 -3.96 23 -6 23 C-6.33 22.01 -6.66 21.02 -7 20 C-9.97 19.67 -12.94 19.34 -16 19 C-16.5311404 13.62322483 -14.93348209 10.41746056 -11.9375 6.125 C-11.56689453 5.53203125 -11.19628906 4.9390625 -10.81445312 4.328125 C-7.34395272 -0.73472265 -6.84170081 0 0 0 Z M-7 10 C-7.66 11.32 -8.32 12.64 -9 14 C-8.01 14 -7.02 14 -6 14 C-6.33 12.68 -6.66 11.36 -7 10 Z " fill="#109ECD" transform="translate(206,217)"/>
<path d="M0 0 C3 2 3 2 3.875 4.75 C4.05551103 9.44328677 2.41954233 12.42273075 -0.6875 15.875 C-1.3371875 16.431875 -1.3371875 16.431875 -2 17 C-0.02 17.33 1.96 17.66 4 18 C4 19.65 4 21.3 4 23 C-1.28 23 -6.56 23 -12 23 C-12.33 21.35 -12.66 19.7 -13 18 C-12.16855469 17.34644531 -12.16855469 17.34644531 -11.3203125 16.6796875 C-7.0192841 13.14396664 -4.11298879 10.70406753 -3 5 C-3.99 5 -4.98 5 -6 5 C-6 5.99 -6 6.98 -6 8 C-8.31 8 -10.62 8 -13 8 C-12.13859136 4.47605555 -11.53586149 2.46143628 -8.75 0.0625 C-5.33757672 -1.25593627 -3.49150092 -0.98672852 0 0 Z " fill="#1D9CC4" transform="translate(180,217)"/>
<path d="M0 0 C1.98 0 3.96 0 6 0 C6.33 3.96 6.66 7.92 7 12 C7.99 12 8.98 12 10 12 C10.06058594 11.21753906 10.12117188 10.43507812 10.18359375 9.62890625 C10.26738281 8.61699219 10.35117188 7.60507813 10.4375 6.5625 C10.51871094 5.55316406 10.59992188 4.54382813 10.68359375 3.50390625 C11 1 11 1 12 0 C13.98 0 15.96 0 18 0 C18 5.94 18 11.88 18 18 C5.90337423 19.46625767 5.90337423 19.46625767 2.09375 17.5 C-0.70714302 14.15565013 -0.5674835 11.40034677 -0.3125 7.25 C-0.27866211 6.20392578 -0.27866211 6.20392578 -0.24414062 5.13671875 C-0.18547048 3.42355065 -0.09579256 1.71149377 0 0 Z " fill="#1B9CC4" transform="translate(103,222)"/>
<path d="M0 0 C3.25415498 2.40524498 4.69571685 4.10616823 6 7.9375 C6 11.80621704 5.17412982 13.81127626 3 17 C-0.06462787 18.9579567 -1.91066741 19.00156724 -5.5625 18.9375 C-9 18 -9 18 -11.4375 15.9375 C-13.62113076 11.83227417 -13.58771847 9.62828294 -13 5 C-9.27612341 0.15896044 -6.0107514 -0.61126285 0 0 Z M-6 6 C-7.00217064 9.58327753 -7.00217064 9.58327753 -6 13 C-4.35 12.67 -2.7 12.34 -1 12 C-1 10.35 -1 8.7 -1 7 C-2.65 6.67 -4.3 6.34 -6 6 Z " fill="#219CC5" transform="translate(157,222)"/>
<path d="M0 0 C2.90717073 2.21863029 3.83981643 3.51944929 5 7 C-2.42857143 7.14285714 -2.42857143 7.14285714 -6 6 C-6 7.65 -6 9.3 -6 11 C-4.68 11 -3.36 11 -2 11 C0.33333333 11 2.66666667 11 5 11 C4.07739356 14.10331257 3.29502729 15.74711947 0.8125 17.875 C-2.96561354 19.38624541 -5.11059061 19.13146455 -9 18 C-12.21047395 15.20112527 -12.9278069 13.68583444 -13.375 9.4375 C-12.8336887 4.47547974 -12.8336887 4.47547974 -11 2 C-7.56999354 -0.54074553 -4.14108223 -0.44368738 0 0 Z " fill="#1F9BC3" transform="translate(92,222)"/>
<path d="M0 0 C1.5159375 0.0309375 1.5159375 0.0309375 3.0625 0.0625 C3.7225 0.0625 4.3825 0.0625 5.0625 0.0625 C6.0525 0.0625 7.0425 0.0625 8.0625 0.0625 C8.0625 2.3725 8.0625 4.6825 8.0625 7.0625 C6.7425 7.3925 5.4225 7.7225 4.0625 8.0625 C3.7325 11.3625 3.4025 14.6625 3.0625 18.0625 C0.7525 18.0625 -1.5575 18.0625 -3.9375 18.0625 C-3.96434312 15.24993719 -3.98426188 12.43762759 -4 9.625 C-4.00837891 8.82255859 -4.01675781 8.02011719 -4.02539062 7.19335938 C-4.0340143 5.14954779 -3.9897815 3.10566098 -3.9375 1.0625 C-2.9375 0.0625 -2.9375 0.0625 0 0 Z " fill="#2898BE" transform="translate(130.9375,221.9375)"/>
<path d="M0 0 C2.90717073 2.21863029 3.83981643 3.51944929 5 7 C4.18015625 6.95359375 3.3603125 6.9071875 2.515625 6.859375 C1.43796875 6.82328125 0.3603125 6.7871875 -0.75 6.75 C-1.81734375 6.70359375 -2.8846875 6.6571875 -3.984375 6.609375 C-7.63802112 7.08264522 -8.72228105 8.19155042 -11 11 C-11 8.03 -11 5.06 -11 2 C-6.71668658 -0.14165671 -4.6947143 -0.5030051 0 0 Z " fill="#159FCB" transform="translate(92,222)"/>
<path d="M0 0 C4.39383706 1.59623144 8.28995807 3.78024333 12.3125 6.125 C12.95767578 6.49753906 13.60285156 6.87007812 14.26757812 7.25390625 C15.84675945 8.16632213 17.42361864 9.08275509 19 10 C18.52305022 14.26236132 17.88778069 16.73640352 14.9375 19.875 C14.38964844 20.47054687 13.84179688 21.06609375 13.27734375 21.6796875 C12.85582031 22.11539063 12.43429688 22.55109375 12 23 C11.34 22.01 10.68 21.02 10 20 C10.99 20 11.98 20 13 20 C13.06058594 19.36191406 13.12117187 18.72382813 13.18359375 18.06640625 C13.26738281 17.24011719 13.35117188 16.41382813 13.4375 15.5625 C13.51871094 14.73878906 13.59992188 13.91507813 13.68359375 13.06640625 C14 11 14 11 15 10 C14.00097656 9.44570312 13.00195312 8.89140625 11.97265625 8.3203125 C10.66911089 7.58882662 9.36573416 6.85704018 8.0625 6.125 C7.0734668 5.57779297 7.0734668 5.57779297 6.06445312 5.01953125 C1.11328125 2.2265625 1.11328125 2.2265625 0 0 Z " fill="#279EC2" transform="translate(197,140)"/>
<path d="M0 0 C1.32 0 2.64 0 4 0 C4 0.66 4 1.32 4 2 C4.66 2 5.32 2 6 2 C5.34 6.62 4.68 11.24 4 16 C2.68 16 1.36 16 0 16 C0 10.72 0 5.44 0 0 Z " fill="#079FD0" transform="translate(129,223)"/>
<path d="M0 0 C1.22995949 0.9156026 2.45892386 1.83254203 3.6875 2.75 C4.42484375 3.30042969 5.1621875 3.85085937 5.921875 4.41796875 C7.46093941 5.58962493 8.96088566 6.8130571 10.4375 8.0625 C14.0589783 10.80069091 17.99749395 12.87230615 22 15 C18.29896173 16.23367942 15.82466559 15.5463808 12 15 C11.01 15.33 10.02 15.66 9 16 C8.01 15.34 7.02 14.68 6 14 C6.66 13.34 7.32 12.68 8 12 C7.79158468 9.36007267 7.24808545 8.24868037 5.37109375 6.3671875 C4.41396484 5.62855469 4.41396484 5.62855469 3.4375 4.875 C1.49609375 3.3671875 1.49609375 3.3671875 0 2 C0 1.34 0 0.68 0 0 Z " fill="#1D9CC6" transform="translate(107,151)"/>
<path d="M0 0 C0.66 0.33 1.32 0.66 2 1 C0.6875 3 0.6875 3 -1 5 C-1.99 5 -2.98 5 -4 5 C-5.4092283 7.6305595 -6.52274325 10.04100817 -7 13 C-6.67 13.99 -6.34 14.98 -6 16 C-11.75 19 -11.75 19 -14 19 C-12.70102477 12.05666809 -6.96365693 6.68789821 -2 2 C-1.34 1.34 -0.68 0.68 0 0 Z " fill="#189DC8" transform="translate(125,77)"/>
<path d="M0 0 C2 3 2 3 1.875 5.9375 C0.84989431 9.5253699 0.03555904 10.84315542 -3 13 C-6.60537331 13.90134333 -8.93420158 14.40992247 -12.4375 13.0625 C-12.953125 12.711875 -13.46875 12.36125 -14 12 C-11.53721199 10.768606 -9.7204945 10.92840804 -7 11 C-7 10.34 -7 9.68 -7 9 C-7.66 8.67 -8.32 8.34 -9 8 C-7.35 7.67 -5.7 7.34 -4 7 C-4 7.66 -4 8.32 -4 9 C-3.34 9 -2.68 9 -2 9 C-2 8.34 -2 7.68 -2 7 C-1.34 7 -0.68 7 0 7 C0 4.69 0 2.38 0 0 Z " fill="#219AC0" transform="translate(161,227)"/>
<path d="M0 0 C2.31 0 4.62 0 7 0 C7 4.62 7 9.24 7 14 C7.99 14 8.98 14 10 14 C10 15.65 10 17.3 10 19 C9.01 19.33 8.02 19.66 7 20 C6 19 6 19 5.90234375 15.18359375 C5.90901911 13.60153318 5.92098125 12.01948841 5.9375 10.4375 C5.94426758 9.22803711 5.94426758 9.22803711 5.95117188 7.99414062 C5.96299482 5.99606244 5.98093086 3.99802217 6 2 C1.45829004 3.90884692 1.45829004 3.90884692 -3 6 C-1.125 1.125 -1.125 1.125 0 0 Z " fill="#2D9ABD" transform="translate(199,217)"/>
<path d="M0 0 C1.32 0 2.64 0 4 0 C4 0.66 4 1.32 4 2 C4.639375 2.144375 5.27875 2.28875 5.9375 2.4375 C8 3 8 3 9 4 C9.04092937 6.33297433 9.04241723 8.66705225 9 11 C8.34 11 7.68 11 7 11 C7 11.66 7 12.32 7 13 C6.34 13 5.68 13 5 13 C4.87625 11.081875 4.87625 11.081875 4.75 9.125 C4.54130069 6.94666582 4.54130069 6.94666582 4 5 C2.07935207 3.4100567 2.07935207 3.4100567 0 3 C0 2.01 0 1.02 0 0 Z " fill="#089ED1" transform="translate(152,223)"/>
<path d="M0 0 C2.97 0.495 2.97 0.495 6 1 C5 3 4 5 3 7 C1.68 7 0.36 7 -1 7 C-1 8.65 -1 10.3 -1 12 C-1.99 12 -2.98 12 -4 12 C-3.28571429 3.42857143 -3.28571429 3.42857143 0 0 Z " fill="#14A0CD" transform="translate(195,223)"/>
<path d="M0 0 C5.11385045 0.25150084 8.88633647 0.7332672 13 4 C14.81023815 6.94321937 15.27298362 9.18894942 15.25 12.625 C15.25515625 13.40101562 15.2603125 14.17703125 15.265625 14.9765625 C15 17 15 17 13 19 C12.86722656 18.15695313 12.73445313 17.31390625 12.59765625 16.4453125 C12.42105469 15.34960938 12.24445313 14.25390625 12.0625 13.125 C11.88847656 12.03445312 11.71445313 10.94390625 11.53515625 9.8203125 C11.14448841 7.06178454 11.14448841 7.06178454 10 5 C9.01 4.67 8.02 4.34 7 4 C7 3.34 7 2.68 7 2 C4.03 2 1.06 2 -2 2 C-1.34 1.34 -0.68 0.68 0 0 Z " fill="#2D9DC0" transform="translate(82,101)"/>
<path d="M0 0 C0.9590625 0.2784375 0.9590625 0.2784375 1.9375 0.5625 C2.9584375 0.7790625 2.9584375 0.7790625 4 1 C4.33 0.67 4.66 0.34 5 0 C7.33297433 -0.04092937 9.66705225 -0.04241723 12 0 C11.07739356 3.10331257 10.29502729 4.74711947 7.8125 6.875 C4.11147874 8.35540851 1.81930606 8.0088733 -2 7 C-2.66 6.01 -3.32 5.02 -4 4 C0.95 4.99 0.95 4.99 6 6 C6.33 5.01 6.66 4.02 7 3 C7.66 3 8.32 3 9 3 C9 2.34 9 1.68 9 1 C5.88214887 1.64644661 5.88214887 1.64644661 5 4 C3.0625 3.6875 3.0625 3.6875 1 3 C0.67 2.01 0.34 1.02 0 0 Z " fill="#2B9ABD" transform="translate(85,233)"/>
<path d="M0 0 C0.99 0.33 1.98 0.66 3 1 C3 1.99 3 2.98 3 4 C3.804375 4.268125 4.60875 4.53625 5.4375 4.8125 C6.283125 5.204375 7.12875 5.59625 8 6 C8.33 6.99 8.66 7.98 9 9 C3.25 9.125 3.25 9.125 1 8 C0.4375 6.125 0.4375 6.125 0 4 C-0.33 3.01 -0.66 2.02 -1 1 C-0.67 0.67 -0.34 0.34 0 0 Z " fill="#0A9FD1" transform="translate(146,230)"/>
<path d="M0 0 C0.99 0 1.98 0 3 0 C3 3.3 3 6.6 3 10 C1.68 10 0.36 10 -1 10 C-1.33 7.36 -1.66 4.72 -2 2 C-1.34 2 -0.68 2 0 2 C0 1.34 0 0.68 0 0 Z " fill="#069ED1" transform="translate(116,223)"/>
<path d="M0 0 C0 0.66 0 1.32 0 2 C-1.4540625 2.1546875 -1.4540625 2.1546875 -2.9375 2.3125 C-6.75953994 2.84634768 -10.21291158 4.02625749 -13.84375 5.30078125 C-16.52894667 6.17152437 -19.20362496 6.64149038 -22 7 C-16.32612227 1.81950294 -7.47147804 0 0 0 Z " fill="#2C9CBE" transform="translate(140,39)"/>
<path d="M0 0 C0 2.93593133 -0.22499427 5.76556416 -0.5 8.6875 C-0.5928125 9.68136719 -0.685625 10.67523438 -0.78125 11.69921875 C-0.8534375 12.45847656 -0.925625 13.21773437 -1 14 C-0.34 14 0.32 14 1 14 C1.66 15.65 2.32 17.3 3 19 C0.6056704 18.04226816 -0.73546442 17.42696971 -2.11328125 15.203125 C-3.59340541 11.5256359 -3.49361723 7.89886076 -3 4 C-1.5 1.4375 -1.5 1.4375 0 0 Z " fill="#2B9ABC" transform="translate(76,105)"/>
<path d="M0 0 C0.81533203 -0.02900391 1.63066406 -0.05800781 2.47070312 -0.08789062 C4.69958724 -0.11169958 6.74513146 -0.09323983 8.9375 0.3125 C10.99609375 2.33203125 10.99609375 2.33203125 11.9375 4.3125 C10.865 3.9825 9.7925 3.6525 8.6875 3.3125 C1.27823421 1.46677542 -6.99366402 1.17079512 -14.0625 4.3125 C-13.7325 3.3225 -13.4025 2.3325 -13.0625 1.3125 C-8.91510277 -0.23848132 -4.37109175 0.05207814 0 0 Z " fill="#389DC1" transform="translate(153.0625,86.6875)"/>
<path d="M0 0 C0.66 0.33 1.32 0.66 2 1 C1.59007813 1.53109375 1.18015625 2.0621875 0.7578125 2.609375 C-0.05042969 3.66898437 -0.05042969 3.66898437 -0.875 4.75 C-1.40867187 5.44609375 -1.94234375 6.1421875 -2.4921875 6.859375 C-3.89238914 8.84722603 -4.97855265 10.79843386 -6 13 C-7.0013988 9.99580359 -7.51421457 7.12290635 -8 4 C-7.236875 4.0825 -6.47375 4.165 -5.6875 4.25 C-2.85416667 4.29166667 -2.85416667 4.29166667 -1.1875 2 C-0.795625 1.34 -0.40375 0.68 0 0 Z " fill="#22A1C3" transform="translate(106,76)"/>
<path d="M0 0 C2.46800047 1.15173355 4.04783565 2.04783565 6 4 C4.73581754 4.69965443 3.46334598 5.38434763 2.1875 6.0625 C1.47980469 6.44535156 0.77210938 6.82820312 0.04296875 7.22265625 C-2 8 -2 8 -5 7 C-4.525625 6.566875 -4.05125 6.13375 -3.5625 5.6875 C-1.76313043 3.97690387 -1.76313043 3.97690387 -1 1 C-0.67 0.67 -0.34 0.34 0 0 Z " fill="#1D9DC4" transform="translate(181,177)"/>
<path d="M0 0 C4.29619614 3.95702276 6.86045363 6.86020672 7.125 12.8125 C7.08375 13.534375 7.0425 14.25625 7 15 C3.69383716 11.19791273 0 5.16418515 0 0 Z " fill="#279CC2" transform="translate(79,137)"/>
<path d="M0 0 C2.27145346 0.03300659 4.54240126 0.10240005 6.8125 0.1875 C8.70935547 0.23970703 8.70935547 0.23970703 10.64453125 0.29296875 C14 1 14 1 15.94921875 3.55078125 C16.29597656 4.35902344 16.64273438 5.16726562 17 6 C16.443125 5.80664062 15.88625 5.61328125 15.3125 5.4140625 C10.24882873 3.68625575 5.20677935 2.2306933 0 1 C0 0.67 0 0.34 0 0 Z " fill="#299DC5" transform="translate(161,57)"/>
<path d="M0 0 C3.3 0 6.6 0 10 0 C10 0.99 10 1.98 10 3 C6.37 3 2.74 3 -1 3 C-0.67 2.01 -0.34 1.02 0 0 Z " fill="#099CCF" transform="translate(173,236)"/>
<path d="M0 0 C0.99 0 1.98 0 3 0 C3 2 3 2 1.9375 3.625 C-0.96338818 5.68369484 -3.54480057 5.19557733 -7 5 C-7 3.68 -7 2.36 -7 1 C-5.02 1.66 -3.04 2.32 -1 3 C-0.67 2.01 -0.34 1.02 0 0 Z " fill="#089FCD" transform="translate(91,234)"/>
<path d="M0 0 C0.66 0.33 1.32 0.66 2 1 C1.65066406 1.51949219 1.30132812 2.03898437 0.94140625 2.57421875 C-2.54055504 7.87724314 -2.54055504 7.87724314 -4 14 C-4.33 14 -4.66 14 -5 14 C-5.72936048 10.95657765 -6.23574867 8.13283784 -6 5 C-4.23893579 2.62662731 -2.5475733 1.61173005 0 0 Z " fill="#279BC1" transform="translate(130,96)"/>
<path d="M0 0 C4.571279 0.54855348 8.67435795 1.41744803 13 3 C12.1028125 3.433125 12.1028125 3.433125 11.1875 3.875 C8.80672208 5.04742026 8.80672208 5.04742026 6 7 C5.01 6.01 4.02 5.02 3 4 C3.99 4 4.98 4 6 4 C6 3.34 6 2.68 6 2 C3.03 1.505 3.03 1.505 0 1 C0 0.67 0 0.34 0 0 Z " fill="#1E9DC5" transform="translate(167,40)"/>
<path d="M0 0 C2.125 0.9375 2.125 0.9375 4 2 C2.42652824 3.035969 0.84078454 4.05331732 -0.75 5.0625 C-1.63171875 5.63097656 -2.5134375 6.19945312 -3.421875 6.78515625 C-6 8 -6 8 -8.328125 7.68359375 C-9.15570313 7.34521484 -9.15570313 7.34521484 -10 7 C-8.865625 6.566875 -7.73125 6.13375 -6.5625 5.6875 C-5.386875 5.130625 -4.21125 4.57375 -3 4 C-2.67 3.01 -2.34 2.02 -2 1 C-1.34 0.67 -0.68 0.34 0 0 Z " fill="#27A1C6" transform="translate(175,147)"/>
<path d="M0 0 C2.38672669 2.96283313 4.7353371 5.94270509 7 9 C6.67 9.66 6.34 10.32 6 11 C3 9.4375 3 9.4375 0 7 C-0.375 3.25 -0.375 3.25 0 0 Z " fill="#239BC0" transform="translate(100,140)"/>
<path d="M0 0 C0.33 0.66 0.66 1.32 1 2 C1.99 1.67 2.98 1.34 4 1 C6.33299825 0.96045766 8.66708189 0.95598268 11 1 C8.39791402 3.60208598 6.45560962 4.24088781 2.875 4.3125 C-1 4 -1 4 -3 2 C-2.01 1.34 -1.02 0.68 0 0 Z " fill="#209EC3" transform="translate(82,122)"/>
<path d="M0 0 C0.66 0.33 1.32 0.66 2 1 C0.6875 3 0.6875 3 -1 5 C-1.99 5 -2.98 5 -4 5 C-4.2475 5.598125 -4.495 6.19625 -4.75 6.8125 C-6.16370012 9.28647521 -7.65055383 10.43370255 -10 12 C-8.43873668 8.16780823 -5.97133075 5.82638778 -3 3 C-2.401875 2.401875 -1.80375 1.80375 -1.1875 1.1875 C-0.795625 0.795625 -0.40375 0.40375 0 0 Z " fill="#2DA2C3" transform="translate(125,77)"/>
<path d="M0 0 C-0.33 0.99 -0.66 1.98 -1 3 C-6.61 2.67 -12.22 2.34 -18 2 C-18 1.67 -18 1.34 -18 1 C-15.75013201 0.83156069 -13.50009983 0.66531346 -11.25 0.5 C-9.37054688 0.36078125 -9.37054688 0.36078125 -7.453125 0.21875 C-4.97265229 0.06161598 -2.48544483 0 0 0 Z " fill="#329FBE" transform="translate(162,170)"/>
<path d="M0 0 C1.32 0.33 2.64 0.66 4 1 C4 2.65 4 4.3 4 6 C3.01 6.33 2.02 6.66 1 7 C0 6 0 6 -0.0625 2.9375 C-0.041875 1.968125 -0.02125 0.99875 0 0 Z " fill="#1F9FC7" transform="translate(205,230)"/>
<path d="M0 0 C0.66 0.33 1.32 0.66 2 1 C1.67 1.33 1.34 1.66 1 2 C2.32 2.66 3.64 3.32 5 4 C3.68 4 2.36 4 1 4 C1 4.66 1 5.32 1 6 C-0.32 6 -1.64 6 -3 6 C-2.42655063 3.13275314 -2.1385485 2.1385485 0 0 Z " fill="#0D9DC8" transform="translate(172,218)"/>
<path d="M0 0 C0 0.99 0 1.98 0 3 C-4.22222222 6 -4.22222222 6 -7 6 C-7 5.34 -7 4.68 -7 4 C-6.34 4 -5.68 4 -5 4 C-5 3.01 -5 2.02 -5 1 C-3.35 0.67 -1.7 0.34 0 0 Z " fill="#279CBD" transform="translate(215,75)"/>
<path d="M0 0 C0.33 0 0.66 0 1 0 C1.12375 0.94875 1.2475 1.8975 1.375 2.875 C1.71687177 6.08667191 1.71687177 6.08667191 4 8 C3.01 9.485 3.01 9.485 2 11 C-0.67927341 6.98108988 -0.15601248 4.75838077 0 0 Z " fill="#289CC1" transform="translate(144,227)"/>
</svg>
